<svg width="332" height="46" viewBox="0 0 332 46" fill="none" xmlns="http://www.w3.org/2000/svg">
<path fill-rule="evenodd" clip-rule="evenodd" d="M30.9999 9.85656C27.9516 6.03274 22.6378 0 13.7446 0C4.76107 0 0 6.49186 0 12.404C0 20.1827 5.00938 26.8688 11.3205 32.3587C17.641 37.8564 25.4024 42.2337 30.9999 45.3855C36.5976 42.2337 44.359 37.8564 50.6795 32.3587C56.9906 26.8688 62 20.1827 62 12.404C62 6.49186 57.2386 0 48.2552 0C39.3621 0 34.0481 6.03274 30.9999 9.85656Z" fill="#ADC8D1"/>
<path fill-rule="evenodd" clip-rule="evenodd" d="M97.9999 9.85656C95.0499 6.03274 89.9076 0 81.3012 0C72.6075 0 68 6.49186 68 12.404C68 20.1827 72.8478 26.8688 78.9554 32.3587C85.0719 37.8564 92.5829 42.2337 97.9999 45.3855C103.417 42.2337 110.928 37.8564 117.045 32.3587C123.152 26.8688 128 20.1827 128 12.404C128 6.49186 123.392 0 114.699 0C106.092 0 100.95 6.03274 97.9999 9.85656Z" fill="#E3A3A8"/>
<path d="M114.698 0.5C123.091 0.5 127.5 6.74274 127.5 12.4043C127.5 19.9675 122.783 26.5275 116.71 31.9863C110.731 37.3605 103.4 41.6626 97.999 44.8057C92.5986 41.6627 85.2686 37.36 79.29 31.9863H79.2891C73.2163 26.5276 68.5001 19.9673 68.5 12.4043C68.5 6.74281 72.9084 0.500196 81.3008 0.5C89.6473 0.5 94.6579 6.34261 97.6045 10.1621L98 10.6748L98.3955 10.1621C101.342 6.34267 106.352 0.500155 114.698 0.5Z" stroke="black" stroke-opacity="0.04"/>
<path fill-rule="evenodd" clip-rule="evenodd" d="M166 9.85656C163.05 6.03274 157.908 0 149.301 0C140.607 0 136 6.49186 136 12.404C136 20.1827 140.848 26.8688 146.955 32.3587C153.072 37.8564 160.583 42.2337 166 45.3855C171.417 42.2337 178.928 37.8564 185.045 32.3587C191.152 26.8688 196 20.1827 196 12.404C196 6.49186 191.392 0 182.699 0C174.092 0 168.95 6.03274 166 9.85656Z" fill="#AEBDDA"/>
<path d="M182.698 0.5C191.091 0.5 195.5 6.74274 195.5 12.4043C195.5 19.9675 190.783 26.5275 184.71 31.9863C178.731 37.3605 171.4 41.6626 165.999 44.8057C160.599 41.6627 153.269 37.36 147.29 31.9863H147.289C141.216 26.5276 136.5 19.9673 136.5 12.4043C136.5 6.74281 140.908 0.500196 149.301 0.5C157.647 0.5 162.658 6.34261 165.604 10.1621L166 10.6748L166.396 10.1621C169.342 6.34267 174.352 0.500155 182.698 0.5Z" stroke="black" stroke-opacity="0.06"/>
<path fill-rule="evenodd" clip-rule="evenodd" d="M234 9.85656C231.05 6.03274 225.908 0 217.301 0C208.607 0 204 6.49186 204 12.404C204 20.1827 208.848 26.8688 214.955 32.3587C221.072 37.8564 228.583 42.2337 234 45.3855C239.417 42.2337 246.928 37.8564 253.045 32.3587C259.152 26.8688 264 20.1827 264 12.404C264 6.49186 259.392 0 250.699 0C242.092 0 236.95 6.03274 234 9.85656Z" fill="#E4C2B7"/>
<path d="M250.698 0.5C259.091 0.5 263.5 6.74274 263.5 12.4043C263.5 19.9675 258.783 26.5275 252.71 31.9863C246.731 37.3605 239.4 41.6626 233.999 44.8057C228.599 41.6627 221.269 37.36 215.29 31.9863H215.289C209.216 26.5276 204.5 19.9673 204.5 12.4043C204.5 6.74281 208.908 0.500196 217.301 0.5C225.647 0.5 230.658 6.34261 233.604 10.1621L234 10.6748L234.396 10.1621C237.342 6.34267 242.352 0.500155 250.698 0.5Z" stroke="black" stroke-opacity="0.07"/>
<path fill-rule="evenodd" clip-rule="evenodd" d="M302 9.85656C299.05 6.03274 293.908 0 285.301 0C276.607 0 272 6.49186 272 12.404C272 20.1827 276.848 26.8688 282.955 32.3587C289.072 37.8564 296.583 42.2337 302 45.3855C307.417 42.2337 314.928 37.8564 321.045 32.3587C327.152 26.8688 332 20.1827 332 12.404C332 6.49186 327.392 0 318.699 0C310.092 0 304.95 6.03274 302 9.85656Z" fill="#C1C4CD"/>
</svg>
