<svg width="332" height="46" viewBox="0 0 332 46" fill="none" xmlns="http://www.w3.org/2000/svg">
<path fill-rule="evenodd" clip-rule="evenodd" d="M30.9999 9.85656C27.9516 6.03274 22.6378 0 13.7446 0C4.76107 0 0 6.49186 0 12.404C0 20.1827 5.00938 26.8688 11.3205 32.3587C17.641 37.8564 25.4024 42.2337 30.9999 45.3855C36.5976 42.2337 44.359 37.8564 50.6795 32.3587C56.9906 26.8688 62 20.1827 62 12.404C62 6.49186 57.2386 0 48.2552 0C39.3621 0 34.0481 6.03274 30.9999 9.85656Z" fill="#ADC8D1"/>
<path fill-rule="evenodd" clip-rule="evenodd" d="M97.9999 9.85656C95.0499 6.03274 89.9076 0 81.3012 0C72.6075 0 68 6.49186 68 12.404C68 20.1827 72.8478 26.8688 78.9554 32.3587C85.0719 37.8564 92.5829 42.2337 97.9999 45.3855C103.417 42.2337 110.928 37.8564 117.045 32.3587C123.152 26.8688 128 20.1827 128 12.404C128 6.49186 123.392 0 114.699 0C106.092 0 100.95 6.03274 97.9999 9.85656Z" fill="#E3A3A8"/>
<path fill-rule="evenodd" clip-rule="evenodd" d="M166 9.85656C163.05 6.03274 157.908 0 149.301 0C140.607 0 136 6.49186 136 12.404C136 20.1827 140.848 26.8688 146.955 32.3587C153.072 37.8564 160.583 42.2337 166 45.3855C171.417 42.2337 178.928 37.8564 185.045 32.3587C191.152 26.8688 196 20.1827 196 12.404C196 6.49186 191.392 0 182.699 0C174.092 0 168.95 6.03274 166 9.85656Z" fill="#AEBDDA"/>
<path fill-rule="evenodd" clip-rule="evenodd" d="M234 9.85656C231.05 6.03274 225.908 0 217.301 0C208.607 0 204 6.49186 204 12.404C204 20.1827 208.848 26.8688 214.955 32.3587C221.072 37.8564 228.583 42.2337 234 45.3855C239.417 42.2337 246.928 37.8564 253.045 32.3587C259.152 26.8688 264 20.1827 264 12.404C264 6.49186 259.392 0 250.699 0C242.092 0 236.95 6.03274 234 9.85656Z" fill="#E4C2B7"/>
<path fill-rule="evenodd" clip-rule="evenodd" d="M302 9.85656C299.05 6.03274 293.908 0 285.301 0C276.607 0 272 6.49186 272 12.404C272 20.1827 276.848 26.8688 282.955 32.3587C289.072 37.8564 296.583 42.2337 302 45.3855C307.417 42.2337 314.928 37.8564 321.045 32.3587C327.152 26.8688 332 20.1827 332 12.404C332 6.49186 327.392 0 318.699 0C310.092 0 304.95 6.03274 302 9.85656Z" fill="#C1C4CD"/>
</svg>
